<svg xmlns="http://www.w3.org/2000/svg"  viewBox="0 0 24 24" width="24px" height="24px"><rect width="3" height="3" x="16" y="3"/><path d="M19,16.702c0,1-0.235,4.294-3.141,5.294L13,20.702c2.078-0.906,3-2.484,3-4C16,14.608,16,8,16,8h3 C19,8,19,14.452,19,16.702z"/><path d="M9.97,16.533c-3.115,0-3.58-2.214-3.58-3.533c0-2.313,1.372-3.75,3.58-3.75 c0.357,0,0.768,0.054,1.254,0.166L12,9.593v6.597l-0.776,0.178C10.739,16.479,10.329,16.533,9.97,16.533z" opacity=".3"/><path d="M11,3v5.159C10.653,8.018,9.904,8,9.535,8C6.759,8,4.19,9.306,4.19,13c0,4.42,3.48,5,5.81,5c0.92,0,3-0.09,4-0.38V3H11z M9.97,15.533c-1.31,0-2.58-0.413-2.58-2.533s1.27-2.45,2.58-2.45c0.32,0,0.68,0.06,1.03,0.14v4.703 C10.65,15.473,10.29,15.533,9.97,15.533z"/></svg>