<?xml version="1.0" encoding="UTF-8"?>
<svg enable-background="new -0.258 -0.548 123.547 123.539" viewBox="-0.258 -0.548 123.547 123.539" xmlns="http://www.w3.org/2000/svg">
 <path d="m109.633-.551h-94.031c-8.148,0-14.742,6.609-14.742,14.766v94.023c0,8.148 6.594,14.766 14.742,14.766h94.031c8.148,0 14.766-6.617 14.766-14.766v-94.023c-.001-8.156-6.618-14.766-14.766-14.766z" fill="#231f20"/>
 <path d="m15.602 1.934c-6.75 0-12.242 5.523-12.242 12.281v94.023c0 6.758 5.492 12.25 12.242 12.25h94.031c6.758 0 12.25-5.492 12.25-12.25v-94.023c0-6.758-5.492-12.281-12.25-12.281h-94.031z" fill="#fff"/>
 <path d="m105.086,86.629-25.563-25.586 25.562-25.586v51.172zm-79.836,4.859 25.609-25.562 1.094,1.047c6.047,5.766 15.656,5.766 21.445,0l1.102-1.094 25.727,25.609h-74.977zm-4.594-56.031 25.524,25.586-25.57,25.586 .046-51.172zm79.524-4.883-31.446,31.422c-3.195,3.219-8.914,3.148-12.203-.125l-31.234-31.297h74.883zm-86.469-6.984v74.781h98.555v-74.781h-98.555z" fill="#231f20"/>
</svg>
